<svg width="509" height="73" viewBox="0 0 509 73" fill="none" xmlns="http://www.w3.org/2000/svg">
<circle cx="35.7107" cy="35.7107" r="27.1712" fill="white"/>
<path d="M369.468 13.7207C371.585 13.7207 373.543 14.0687 375.343 14.7647C377.197 15.4607 378.785 16.4244 380.108 17.6558C381.484 18.8337 382.543 20.2257 383.284 21.8319C384.025 23.438 384.395 25.1512 384.395 26.9716C384.395 29.0061 384.183 30.8264 383.76 32.4326C383.336 34.0387 382.622 35.5913 381.616 37.0904C380.611 38.5896 379.261 40.1154 377.567 41.668C375.926 43.2206 373.888 44.9607 371.453 46.8881C370.023 48.0123 368.567 49.0832 367.085 50.1004C365.656 51.1177 364.228 52.1617 362.798 53.2325C361.421 54.3032 360.071 55.4543 358.748 56.6857C357.425 57.8635 356.181 59.202 355.017 60.7011H378.679L376.296 70.6594H339.692C340.168 67.2864 340.989 64.3686 342.153 61.9057C343.318 59.443 344.747 57.2211 346.441 55.2402C348.188 53.2057 350.146 51.3318 352.316 49.6185C354.487 47.8518 356.843 45.9779 359.384 43.997C361.765 42.1231 363.777 40.5169 365.418 39.1785C367.112 37.7864 368.462 36.5283 369.468 35.4039C370.527 34.2261 371.294 33.1286 371.771 32.1113C372.247 31.0941 372.485 30.0233 372.485 28.8989C372.485 27.5069 371.983 26.3559 370.976 25.4457C370.023 24.482 368.779 24.0002 367.244 24.0002C365.075 24.0002 362.957 24.482 360.892 25.4457C358.828 26.3559 356.578 27.7479 354.143 29.6217L350.094 20.8682C353.269 18.2447 356.445 16.3977 359.622 15.3268C362.798 14.256 366.08 13.7207 369.468 13.7207Z" fill="#FF9500"/>
<path d="M399.749 61.5042C401.443 61.5042 403.004 60.9956 404.434 59.9784C405.862 58.9611 407.107 57.6227 408.165 55.9629C409.277 54.3032 410.229 52.4293 411.024 50.3413C411.871 48.1998 412.559 46.0315 413.088 43.8363C413.617 41.6413 414.015 39.4996 414.279 37.4116C414.544 35.3236 414.676 33.4766 414.676 31.8704C414.676 29.1399 414.253 27.1322 413.406 25.8472C412.612 24.5624 411.368 23.9199 409.674 23.9199C407.927 23.9199 406.339 24.4285 404.91 25.4457C403.481 26.4629 402.21 27.8014 401.098 29.4611C399.987 31.1209 399.008 33.0214 398.161 35.1631C397.366 37.3046 396.705 39.4729 396.175 41.668C395.646 43.8631 395.249 46.0047 394.985 48.0927C394.719 50.1807 394.587 52.0278 394.587 53.634C394.587 56.418 395.011 58.4257 395.858 59.6571C396.705 60.8885 398.002 61.5042 399.749 61.5042ZM397.923 71.7836C395.328 71.7836 393.131 71.3286 391.332 70.4184C389.533 69.4547 388.05 68.1966 386.886 66.6439C385.774 65.0913 384.953 63.3513 384.424 61.4239C383.948 59.4429 383.71 57.4085 383.71 55.3205C383.71 49.217 384.371 43.6222 385.694 38.536C387.07 33.4498 388.95 29.0596 391.332 25.3654C393.767 21.6712 396.679 18.8069 400.067 16.7724C403.455 14.7379 407.213 13.7207 411.342 13.7207C413.935 13.7207 416.132 14.2025 417.932 15.1662C419.732 16.0764 421.188 17.3078 422.299 18.8604C423.464 20.413 424.284 22.1799 424.76 24.1607C425.29 26.0882 425.555 28.0959 425.555 30.1839C425.555 36.2873 424.866 41.8821 423.49 46.9683C422.167 52.0545 420.287 56.4447 417.852 60.1389C415.471 63.8331 412.586 66.6974 409.198 68.7319C405.81 70.7664 402.051 71.7836 397.923 71.7836Z" fill="#FF9500"/>
<path d="M451.786 13.7207C453.903 13.7207 455.862 14.0687 457.662 14.7647C459.514 15.4607 461.103 16.4244 462.426 17.6558C463.802 18.8337 464.861 20.2257 465.602 21.8319C466.343 23.438 466.714 25.1512 466.714 26.9716C466.714 29.0061 466.502 30.8264 466.079 32.4326C465.655 34.0387 464.94 35.5913 463.935 37.0904C462.929 38.5896 461.579 40.1154 459.885 41.668C458.244 43.2206 456.206 44.9607 453.771 46.8881C452.342 48.0123 450.886 49.0832 449.404 50.1004C447.975 51.1177 446.545 52.1617 445.117 53.2325C443.74 54.3032 442.39 55.4543 441.066 56.6857C439.743 57.8635 438.499 59.202 437.334 60.7011H460.997L458.615 70.6594H422.01C422.487 67.2864 423.307 64.3686 424.471 61.9057C425.636 59.443 427.066 57.2211 428.76 55.2402C430.506 53.2057 432.465 51.3318 434.635 49.6185C436.805 47.8518 439.161 45.9779 441.701 43.997C444.084 42.1231 446.096 40.5169 447.736 39.1785C449.43 37.7864 450.78 36.5283 451.786 35.4039C452.844 34.2261 453.613 33.1286 454.089 32.1113C454.566 31.0941 454.804 30.0233 454.804 28.8989C454.804 27.5069 454.3 26.3559 453.295 25.4457C452.342 24.482 451.098 24.0002 449.562 24.0002C447.392 24.0002 445.275 24.482 443.211 25.4457C441.146 26.3559 438.896 27.7479 436.461 29.6217L432.412 20.8682C435.588 18.2447 438.764 16.3977 441.94 15.3268C445.117 14.256 448.398 13.7207 451.786 13.7207Z" fill="#FF9500"/>
<path d="M493.926 28.0539C492.499 29.4239 490.989 30.9034 489.396 32.4925C487.859 34.0817 486.294 35.753 484.701 37.5065C483.109 39.2052 481.544 40.9588 480.006 42.7671C478.523 44.5206 477.123 46.2467 475.805 47.9454H489.149L493.926 28.0539ZM509 13.5874L500.681 47.9454H506.694L504.305 57.809H498.21L495.08 70.5494H483.383L486.431 57.809H461.967L464.026 48.7674C465.784 46.3563 467.925 43.6438 470.451 40.63C472.977 37.5613 475.723 34.4379 478.688 31.2596C481.653 28.0813 484.729 24.9579 487.913 21.8892C491.098 18.8206 494.228 16.0533 497.304 13.5874H509Z" fill="#FF9500"/>
<path d="M69.7133 44.7873C64.9865 64.1068 45.7841 75.8644 26.8228 71.0466C7.86925 66.2299 -3.66899 46.6614 1.06 27.343C5.78456 8.02126 24.987 -3.73746 43.9427 1.07918C62.9018 5.8958 74.439 25.4666 69.7133 44.7873ZM50.9898 30.9257C51.6942 26.127 48.1088 23.5474 43.2062 21.8266L44.7965 15.3262L40.9136 14.3401L39.3653 20.6691C38.3444 20.4099 37.2961 20.1654 36.2543 19.9231L37.8136 13.5524L33.9329 12.5663L32.3414 19.0644C31.4965 18.8682 30.667 18.6744 29.862 18.4704L29.8664 18.4502L24.5114 17.0877L23.4784 21.3138C23.4784 21.3138 26.3595 21.9866 26.2986 22.0283C27.8713 22.4283 28.1555 23.4888 28.1079 24.3295L26.2964 31.7348C26.4048 31.7629 26.5452 31.8035 26.7 31.8666C26.5707 31.8339 26.4324 31.7979 26.2898 31.7629L23.7505 42.1366C23.5581 42.6235 23.0703 43.3538 21.9711 43.0765C22.0098 43.134 19.1487 42.3587 19.1487 42.3587L17.2211 46.8879L22.2741 48.1716C23.2141 48.4115 24.1354 48.6629 25.0423 48.8996L23.4353 55.4742L27.3138 56.4603L28.9053 49.9555C29.9648 50.2486 30.9933 50.519 31.9997 50.7737L30.4138 57.2481L34.2967 58.2341L35.9037 51.6719C42.5249 52.9488 47.5038 52.4337 49.5996 46.3312C51.2884 41.4177 49.5155 38.5833 46.0319 36.7351C48.5689 36.139 50.4788 34.4384 50.9898 30.9257ZM42.1179 43.6028C40.918 48.5164 32.7993 45.8602 30.1672 45.1941L32.2994 36.4838C34.9315 37.1533 43.372 38.4786 42.1179 43.6028ZM43.319 30.8546C42.2241 35.3242 35.4668 33.0533 33.2749 32.4966L35.208 24.5966C37.4 25.1533 44.4592 26.1924 43.319 30.8546Z" fill="#FF9500"/>
<path d="M103.7 21.8258C106.569 21.8258 109.049 22.3498 111.132 23.3787C113.226 24.4178 114.954 25.8175 116.339 27.5778C117.707 29.3471 118.724 31.4151 119.381 33.7851C120.034 36.1619 120.361 38.7167 120.361 41.4518C120.361 45.6532 119.605 49.6224 118.08 53.3639C116.555 57.111 114.486 60.3611 111.854 63.1334C109.224 65.9024 106.118 68.0854 102.537 69.698C98.9616 71.3118 95.0747 72.1188 90.9006 72.1188C90.3609 72.1188 89.412 72.103 88.0717 72.0748C86.7312 72.0466 85.1907 71.9057 83.4654 71.6679C81.7291 71.4211 79.8932 71.056 77.9545 70.5668C76.0169 70.0869 74.1767 69.414 72.4436 68.5598L87.9401 2.2088L101.82 0.0168457L96.2706 23.5624C97.459 23.0171 98.6558 22.5944 99.8498 22.2867C101.046 21.9836 102.328 21.8258 103.7 21.8258ZM92.0574 60.8987C94.148 60.8987 96.1177 60.3746 97.9673 59.3457C99.8235 58.3157 101.425 56.925 102.766 55.1929C104.108 53.4529 105.17 51.4931 105.944 49.3034C106.718 47.1137 107.11 44.8294 107.11 42.4525C107.11 39.5326 106.63 37.2551 105.676 35.6086C104.722 33.9688 102.955 33.1439 100.391 33.1439C99.5506 33.1439 98.4673 33.3073 97.1251 33.5991C95.7782 33.9091 94.572 34.5526 93.4918 35.5206L87.5839 60.5257C87.9401 60.5899 88.2552 60.6508 88.5239 60.7082C88.7871 60.7703 89.078 60.8142 89.3678 60.8446C89.6742 60.8796 90.0248 60.8976 90.4483 60.8976C90.8719 60.8976 91.4016 60.8987 92.0574 60.8987Z" fill="white"/>
<path d="M134.758 70.8466H121.501L132.696 22.8415H146.044L134.758 70.8466ZM141.209 16.9926C139.358 16.9926 137.68 16.4313 136.192 15.3067C134.691 14.1887 133.948 12.4678 133.948 10.1485C133.948 8.8728 134.202 7.67595 134.707 6.54674C135.219 5.41977 135.888 4.44947 136.726 3.62454C137.563 2.80636 138.533 2.15271 139.635 1.66023C140.743 1.17564 141.922 0.93335 143.178 0.93335C145.027 0.93335 146.696 1.49458 148.19 2.61928C149.678 3.74963 150.428 5.4705 150.428 7.77739C150.428 9.05762 150.175 10.259 149.665 11.3859C149.16 12.5129 148.491 13.4832 147.653 14.3082C146.822 15.1275 145.843 15.7788 144.744 16.2668C143.635 16.7593 142.46 16.9926 141.209 16.9926Z" fill="white"/>
<path d="M157.657 10.8799L171.542 8.68799L168.133 22.8381H183.003L180.318 33.9703H165.536L161.6 50.762C161.237 52.1617 161.031 53.4689 160.973 54.6838C160.909 55.9043 161.06 56.9524 161.418 57.8348C161.774 58.7194 162.415 59.4013 163.344 59.8836C164.268 60.3738 165.592 60.6207 167.328 60.6207C168.758 60.6207 170.152 60.482 171.499 60.207C172.838 59.9365 174.196 59.5602 175.569 59.0677L176.557 69.4763C174.766 70.1457 172.826 70.7216 170.736 71.2062C168.642 71.6976 166.164 71.9342 163.299 71.9342C159.181 71.9342 155.988 71.311 153.714 70.0702C151.442 68.8205 149.836 67.113 148.875 64.9515C147.927 62.798 147.503 60.3152 147.622 57.5181C147.744 54.7142 148.159 51.7673 148.875 48.6636L157.657 10.8799Z" fill="white"/>
<path d="M182.42 51.6785C182.42 47.5437 183.077 43.6444 184.39 39.9941C185.7 36.3406 187.588 33.1457 190.038 30.4037C192.478 27.6753 195.452 25.5138 198.953 23.927C202.436 22.3493 206.337 21.5537 210.636 21.5537C213.327 21.5537 215.73 21.8129 217.844 22.3324C219.968 22.8564 221.889 23.5338 223.627 24.3835L219.054 34.9769C217.86 34.4834 216.62 34.0483 215.338 33.6538C214.056 33.2516 212.489 33.0577 210.637 33.0577C206.212 33.0577 202.714 34.6118 200.11 37.7098C197.517 40.8101 196.211 44.9832 196.211 50.218C196.211 53.3204 196.868 55.8291 198.186 57.7483C199.498 59.6675 201.921 60.6221 205.439 60.6221C207.175 60.6221 208.851 60.4373 210.456 60.0766C212.073 59.7115 213.5 59.2517 214.757 58.7085L215.748 69.5679C214.071 70.2306 212.222 70.829 210.193 71.353C208.161 71.859 205.741 72.1216 202.935 72.1216C199.231 72.1216 196.096 71.5694 193.531 70.4818C190.965 69.3774 188.845 67.9113 187.176 66.0541C185.497 64.1923 184.292 62.0184 183.546 59.5233C182.8 57.0305 182.42 54.4114 182.42 51.6785Z" fill="white"/>
<path d="M241.309 72.1216C238.145 72.1216 235.397 71.6302 233.065 70.6577C230.741 69.6851 228.815 68.3203 227.292 66.551C225.767 64.7907 224.627 62.7047 223.844 60.3009C223.062 57.8982 222.686 55.2375 222.686 52.322C222.686 48.665 223.263 45.0091 224.427 41.3634C225.586 37.7098 227.306 34.427 229.582 31.5093C231.84 28.587 234.626 26.1979 237.906 24.335C241.183 22.4845 244.952 21.5537 249.186 21.5537C252.292 21.5537 255.027 22.0461 257.389 23.0187C259.742 23.989 261.679 25.3651 263.211 27.1254C264.727 28.8947 265.878 30.9717 266.652 33.379C267.432 35.7771 267.816 38.4446 267.816 41.3623C267.816 45.008 267.248 48.6639 266.12 52.3209C264.99 55.9599 263.315 59.2506 261.104 62.175C258.896 65.0928 256.135 67.4808 252.82 69.3358C249.509 71.1908 245.669 72.1216 241.309 72.1216ZM247.935 33.0589C245.97 33.0589 244.233 33.6404 242.745 34.7887C241.252 35.9506 239.998 37.4111 238.987 39.1726C237.965 40.942 237.207 42.8713 236.695 44.9686C236.188 47.0704 235.939 49.0572 235.939 50.9448C235.939 53.991 236.421 56.3633 237.369 58.0707C238.33 59.769 240.056 60.6232 242.566 60.6232C244.537 60.6232 246.266 60.0462 247.762 58.8854C249.247 57.7325 250.502 56.2709 251.52 54.506C252.535 52.7457 253.3 50.8108 253.812 48.7101C254.313 46.615 254.569 44.617 254.569 42.7327C254.569 39.6944 254.089 37.3165 253.132 35.6114C252.176 33.9131 250.442 33.0589 247.935 33.0589Z" fill="white"/>
<path d="M282.264 70.8466H268.995L280.191 22.8415H293.545L282.264 70.8466ZM288.705 16.9926C286.855 16.9926 285.179 16.4313 283.692 15.3067C282.199 14.1887 281.449 12.4678 281.449 10.1485C281.449 8.8728 281.707 7.67595 282.212 6.54674C282.718 5.41977 283.391 4.44947 284.23 3.62454C285.062 2.80636 286.041 2.15271 287.14 1.66023C288.242 1.17564 289.421 0.93335 290.672 0.93335C292.527 0.93335 294.201 1.49458 295.691 2.61928C297.184 3.74963 297.937 5.4705 297.937 7.77739C297.937 9.05762 297.669 10.259 297.168 11.3859C296.667 12.5129 295.993 13.4832 295.159 14.3082C294.318 15.1275 293.351 15.7788 292.25 16.2668C291.139 16.7593 289.963 16.9926 288.705 16.9926Z" fill="white"/>
<path d="M303.103 25.0262C304.11 24.7264 305.233 24.3657 306.455 23.9736C307.681 23.5814 309.052 23.2163 310.582 22.8872C312.096 22.548 313.805 22.2731 315.684 22.06C317.564 21.8425 319.704 21.7366 322.083 21.7366C329.075 21.7366 333.894 23.8113 336.555 27.9484C339.214 32.0855 339.674 37.7473 337.949 44.9238L331.85 70.8439H318.506L324.416 45.4693C324.777 43.8848 325.061 42.3532 325.27 40.8566C325.481 39.3735 325.469 38.0662 325.222 36.9348C324.987 35.8168 324.431 34.9017 323.569 34.1928C322.695 33.4953 321.374 33.1448 319.58 33.1448C317.852 33.1448 316.093 33.3342 314.299 33.6993L305.609 70.8428H292.26L303.103 25.0262Z" fill="white"/>
<path d="M51.1478 30.8347C51.8585 26.022 48.2412 23.4347 43.295 21.7088L44.8995 15.1892L40.982 14.2002L39.42 20.5479C38.3901 20.288 37.3324 20.0427 36.2813 19.7997L37.8545 13.4101L33.9393 12.4211L32.3337 18.9384C31.4813 18.7417 30.6445 18.5473 29.8322 18.3427L29.8366 18.3224L24.4341 16.9559L23.392 21.1945C23.392 21.1945 26.2986 21.8693 26.2372 21.9111C27.8238 22.3123 28.1106 23.3759 28.0626 24.2191L26.235 31.6463C26.3443 31.6746 26.486 31.7152 26.6422 31.7785C26.5117 31.7458 26.3722 31.7096 26.2283 31.6746L23.6665 42.0789C23.4723 42.5672 22.9803 43.2996 21.8712 43.0216C21.9102 43.0792 19.0238 42.3016 19.0238 42.3016L17.079 46.8442L22.1769 48.1316C23.1253 48.3724 24.0547 48.6244 24.9697 48.8618L23.3485 55.4559L27.2615 56.4449L28.867 49.9209C29.9359 50.2147 30.9736 50.486 31.989 50.7415L30.3889 57.235L34.3064 58.224L35.9276 51.6423C42.6077 52.9229 47.6309 52.4064 49.7453 46.2859C51.449 41.3578 49.6605 38.5151 46.1458 36.6614C48.7054 36.0635 50.6323 34.3579 51.1478 30.8347ZM42.1971 43.5494C40.9865 48.4775 32.7957 45.8134 30.1401 45.1454L32.2913 36.4093C34.9468 37.0807 43.4624 38.41 42.1971 43.5494ZM43.4088 30.7635C42.3042 35.2463 35.4869 32.9687 33.2754 32.4104L35.2258 24.487C37.4372 25.0454 44.5592 26.0875 43.4088 30.7635Z" fill="white"/>
</svg>
