<svg width="119" height="26" viewBox="0 0 119 26" fill="none" xmlns="http://www.w3.org/2000/svg">
<g clip-path="url(#clip0_202_180)">
<path d="M0.915619 24.445H0.901704V24.8718H0V20.1074H0.935726V21.8658H0.955834C1.05912 21.7046 1.20475 21.5727 1.37783 21.4838C1.55092 21.3949 1.74527 21.352 1.94105 21.3596C2.82884 21.3596 3.46142 22.0995 3.46142 23.1659C3.46142 24.2712 2.85514 24.9707 1.96735 24.9707C1.75967 24.9811 1.55286 24.9379 1.36806 24.8456C1.18327 24.7532 1.02713 24.615 0.915619 24.445V24.445ZM2.51177 23.1659C2.51177 22.5323 2.25039 22.092 1.72761 22.092C1.13524 22.092 0.915619 22.5518 0.915619 23.1853C0.915619 23.8189 1.23888 24.2113 1.76165 24.2113C2.24266 24.2113 2.51177 23.8249 2.51177 23.1659V23.1659Z" fill="white"/>
<path d="M4.01198 25.2765H4.34142C4.71417 25.2765 4.86574 25.0893 4.86574 24.8107C4.86574 24.6234 4.79614 24.4033 4.59662 23.8835L3.64697 21.4512H4.63065L5.15342 22.9924C5.26478 23.3054 5.38078 23.7413 5.38078 23.7413H5.3947C5.3947 23.7413 5.49059 23.3084 5.60195 22.9924L6.09688 21.4527H7.0388L5.80147 24.9574C5.5339 25.7183 5.27251 25.9909 4.55641 25.9909H4.0058L4.01198 25.2765Z" fill="white"/>
<path d="M12.2788 25.2159C13.3057 25.2159 14.0481 24.9448 14.5987 24.4326C15.1093 23.9685 15.4212 23.3355 15.4726 22.6593H13.6816C13.6012 23.3288 13.0722 23.8125 12.2695 23.8125C11.1868 23.8125 10.5218 22.8929 10.5218 21.6243C10.5218 20.3557 11.0801 19.4256 12.2587 19.4256C13.032 19.4256 13.5393 19.9004 13.6305 20.5189H15.4309C15.3964 20.1459 15.2825 19.7838 15.0961 19.4556C14.9097 19.1274 14.6551 18.8402 14.3482 18.6123C13.744 18.1964 13.0166 17.982 12.2757 18.0012C10.1103 18.0012 8.69824 19.5604 8.69824 21.6243C8.69824 23.6882 10.1459 25.2159 12.2788 25.2159ZM18.6618 24.0926C17.9395 24.0926 17.5637 23.4935 17.5637 22.5948C17.5637 21.6962 17.9395 21.0851 18.6618 21.0851C19.3841 21.0851 19.7692 21.6947 19.7692 22.5948C19.7692 23.495 19.3826 24.0926 18.668 24.0926H18.6618ZM18.6711 25.2159C20.3492 25.2159 21.4458 24.0836 21.4458 22.5919C21.4458 21.1001 20.3492 19.9678 18.668 19.9678C16.9868 19.9678 15.884 21.1001 15.884 22.5919C15.884 24.0836 17.0054 25.2159 18.668 25.2159H18.6711ZM32.141 23.6193V19.5753H33.2236C34.3527 19.5753 34.993 20.3886 34.993 21.6483C34.993 22.9079 34.3743 23.6238 33.2035 23.6238L32.141 23.6193ZM30.4922 25.0617H33.4788C34.3944 25.0617 35.126 24.8385 35.6952 24.4326C36.5087 23.8335 36.9557 22.8629 36.9557 21.6438C36.9557 19.5229 35.6039 18.1375 33.5917 18.1375H30.4984L30.4922 25.0617ZM40.097 25.2114C40.6738 25.2284 41.2418 25.0714 41.7225 24.7621C42.1534 24.4895 42.4652 24.0724 42.5979 23.5909H40.9817C40.8394 23.9009 40.5548 24.0836 40.1171 24.0836C39.4365 24.0836 39.0499 23.6672 38.9478 22.9992H42.6892C42.6984 21.9927 42.3938 21.13 41.7735 20.5878C41.2827 20.1712 40.6473 19.9497 39.9949 19.9678C38.4096 19.9678 37.3223 21.1016 37.3223 22.5829C37.3223 24.0642 38.3786 25.207 40.097 25.207V25.2114ZM38.8086 22.0541C38.92 21.464 39.2463 21.0866 39.8758 21.0866C40.414 21.0866 40.8038 21.464 40.861 22.0541H38.8086ZM45.4592 25.2204C46.8203 25.2204 47.8272 24.6588 47.8272 23.5729C47.8272 22.3043 46.7445 22.0751 45.8351 21.9373C45.1747 21.8205 44.5854 21.7726 44.5854 21.4236C44.5854 21.1136 44.8947 20.9743 45.3061 20.9743C45.7701 20.9743 46.0794 21.1091 46.1398 21.5554H47.6648C47.5828 20.5774 46.7909 19.9663 45.3169 19.9663C44.0873 19.9663 43.0712 20.51 43.0712 21.5554C43.0712 22.7177 44.0363 22.9498 44.9411 23.0951C45.6325 23.2119 46.2619 23.2599 46.2619 23.7047C46.2619 24.0252 45.9526 24.199 45.4484 24.199C44.8993 24.199 44.5544 23.9563 44.4926 23.4636H42.9289C42.9784 24.5479 43.9342 25.2159 45.4592 25.2159V25.2204ZM48.3654 25.0707H50.0018V23.5414L50.4998 23.0382L51.7495 25.0617H53.6705L51.6273 21.9628L53.457 20.1026H51.5453L49.9987 21.7786V18.1375H48.3639L48.3654 25.0707Z" fill="white"/>
<path d="M26.4017 25.0604H24.7437V20.1013H26.3398V20.7798H26.3692C26.5399 20.5189 26.7779 20.3058 27.0597 20.1613C27.3416 20.0168 27.6574 19.9461 27.9762 19.956C29.1145 19.956 29.7842 20.7318 29.7842 21.8357V25.0604H28.1277V22.1547C28.1277 21.632 27.854 21.274 27.3142 21.274C26.7744 21.274 26.4001 21.7099 26.4001 22.3225L26.4017 25.0604Z" fill="white"/>
<path d="M21.5776 21.2128V20.1074H23.9749V25.0635H22.4005V21.2128H21.5776Z" fill="white"/>
<path d="M23.7935 20.0535C24.2932 20.0535 24.6983 19.6673 24.6983 19.1908C24.6983 18.7144 24.2932 18.3281 23.7935 18.3281C23.2938 18.3281 22.8887 18.7144 22.8887 19.1908C22.8887 19.6673 23.2938 20.0535 23.7935 20.0535Z" fill="white"/>
<path d="M0 9.53479V5.1703C0 2.05494 2.29679 0 5.82008 0C9.29852 0 11.617 2.05494 11.617 5.1703V5.72148H8.37981V5.2392C8.37981 3.82081 7.35128 2.8877 5.82008 2.8877C4.28889 2.8877 3.23716 3.82081 3.23716 5.2392V9.47788C3.23716 10.8963 4.26569 11.8294 5.82008 11.8294C7.37448 11.8294 8.37981 10.8963 8.37981 9.47788V8.98362H11.617V9.53479C11.617 12.6502 9.29698 14.7051 5.82008 14.7051C2.29679 14.7051 0 12.6502 0 9.53479Z" fill="white"/>
<path d="M13.4775 9.43295V5.27664C13.4775 2.09838 15.8192 0 19.4074 0C22.9508 0 25.3141 2.09688 25.3141 5.27664V9.43295C25.3141 12.6112 22.9508 14.7096 19.4074 14.7096C15.8192 14.7051 13.4775 12.6067 13.4775 9.43295ZM22.077 9.37004V5.33955C22.077 3.85676 21.0051 2.88171 19.4074 2.88171C17.8097 2.88171 16.7162 3.85676 16.7162 5.33955V9.36555C16.7162 10.8483 17.7881 11.8234 19.4074 11.8234C21.0268 11.8234 22.077 10.8483 22.077 9.36555V9.37004Z" fill="white"/>
<path d="M27.7222 0.253906H31.5068L36.0587 9.24051H36.2984L36.1437 8.2445V0.253906H39.3824V14.4498H35.5993L31.0691 5.46314H30.8078L30.9624 6.45916V14.4498H27.7222V0.253906Z" fill="white"/>
<path d="M41.4629 10.4029V10.1483H44.8764V10.4478C44.8764 11.4873 45.8399 12.1643 47.1298 12.1643C48.3331 12.1643 49.3184 11.5921 49.3184 10.7025C49.3184 8.11732 41.5944 9.32602 41.5944 4.19766C41.5944 1.5496 43.8262 0.00390625 47.0432 0.00390625C50.3469 0.00390625 52.4689 1.63498 52.4689 4.04788V4.3025H49.0987V4.06885C49.0987 3.15821 48.2233 2.54412 46.9984 2.54412C45.9049 2.54412 45.0295 3.05187 45.0295 3.8996C45.0295 6.46378 52.7318 5.1083 52.7318 10.34C52.7318 13.036 50.5217 14.7045 47.1515 14.7045C43.6731 14.7045 41.4629 12.9671 41.4629 10.4029Z" fill="white"/>
<path d="M58.0571 3.11464V5.86904H63.4394V8.70731H58.0571V11.589H64.2917V14.4498H54.8091V0.253906H64.2824V3.11464H58.0571Z" fill="white"/>
<path d="M66.6699 0.253906H70.4546L75.0064 9.24051H75.2462L75.0915 8.2445V0.253906H78.3302V14.4498H74.544L70.0153 5.46314H69.7524L69.9071 6.45916V14.4498H66.6699V0.253906Z" fill="white"/>
<path d="M80.4106 10.4029V10.1483H83.8241V10.4478C83.8241 11.4873 84.7861 12.1643 86.0776 12.1643C87.2809 12.1643 88.2661 11.5921 88.2661 10.7025C88.2661 8.11732 80.5421 9.32602 80.5421 4.19766C80.5421 1.5496 82.7739 0.00390625 85.991 0.00390625C89.2946 0.00390625 91.4167 1.63498 91.4167 4.04788V4.3025H88.0465V4.06885C88.0465 3.15821 87.1726 2.54412 85.9461 2.54412C84.8526 2.54412 83.9772 3.05187 83.9772 3.8996C83.9772 6.46378 91.6796 5.1083 91.6796 10.34C91.6796 13.036 89.4694 14.7045 86.0993 14.7045C82.6208 14.7045 80.4106 12.9671 80.4106 10.4029Z" fill="white"/>
<path d="M93.562 9.64042V0.253906H96.7991V9.58201C96.7991 10.939 97.7627 11.8287 99.2738 11.8287C100.74 11.8287 101.724 10.939 101.724 9.58201V0.253906H104.941V9.64042C104.941 12.6914 102.687 14.7044 99.2738 14.7044C95.8155 14.7044 93.562 12.6914 93.562 9.64042Z" fill="white"/>
<path d="M107 10.399V10.1444H110.413V10.4439C110.413 11.4834 111.376 12.1604 112.667 12.1604C113.87 12.1604 114.854 11.5882 114.854 10.6986C114.854 8.11341 107.131 9.32211 107.131 4.19375C107.131 1.5457 109.363 0 112.579 0C115.882 0 118.004 1.63107 118.004 4.04397V4.2986H114.636V4.06494C114.636 3.1543 113.76 2.54022 112.535 2.54022C111.44 2.54022 110.567 3.04796 110.567 3.8957C110.567 6.45988 118.267 5.1044 118.267 10.3361C118.267 13.0321 116.057 14.7006 112.689 14.7006C109.209 14.7006 107 12.9632 107 10.399Z" fill="white"/>
</g>
<defs>
<clipPath id="clip0_202_180">
<rect width="119" height="26" fill="white"/>
</clipPath>
</defs>
</svg>
